<svg width="15" height="16" viewBox="0 0 15 16" fill="none" xmlns="http://www.w3.org/2000/svg">
<path d="M5.39213 0C5.21134 0.016868 5.05805 0.184027 5.05881 0.363606V1.99991H1.34625C1.15363 2.00879 0.986575 2.19016 0.995588 2.38066C1.00458 2.57103 1.18808 2.73615 1.38069 2.72729H2.14511L3.77162 15.6761C3.79128 15.8529 3.95961 16.001 4.13938 16H11.8635C12.0434 16.0018 12.2116 15.8529 12.2313 15.6761L13.8578 2.72729H14.6222C14.8165 2.72995 14.9952 2.55582 14.9952 2.36368C14.9952 2.17154 14.8165 1.99728 14.6222 2.00008H10.9439V0.363768C10.9439 0.1734 10.7686 0.000162249 10.5761 0.000162249L5.39213 0ZM5.79444 0.727212H10.2083V1.99991H5.79444V0.727212ZM2.8921 2.72729H13.1107L11.5359 15.2728H4.46676L2.8921 2.72729ZM5.75425 5.26714C5.57345 5.2868 5.42273 5.45675 5.42671 5.63646V12.5456C5.42401 12.7377 5.60018 12.9144 5.79448 12.9144C5.98877 12.9144 6.16507 12.7377 6.16224 12.5456V5.63646C6.16674 5.43024 5.96176 5.24458 5.75425 5.26714ZM7.96119 5.26714C7.78039 5.2868 7.62967 5.45675 7.63365 5.63646V12.5456C7.63095 12.7377 7.80712 12.9144 8.00142 12.9144C8.19572 12.9144 8.37201 12.7377 8.36918 12.5456V5.63646C8.37368 5.43024 8.1687 5.24458 7.96119 5.26714ZM10.1681 5.26714C9.98733 5.2868 9.83661 5.45675 9.84059 5.63646V12.5456C9.83789 12.7377 10.0141 12.9144 10.2084 12.9144C10.4027 12.9144 10.579 12.7377 10.5761 12.5456V5.63646C10.5806 5.43024 10.3756 5.24458 10.1681 5.26714Z" fill="#888888"/>
</svg>
