<svg width="17" height="16" viewBox="0 0 17 16" fill="none" xmlns="http://www.w3.org/2000/svg">
<path fill-rule="evenodd" clip-rule="evenodd" d="M15.2856 0.799392C15.0814 0.715015 14.8626 0.671782 14.6416 0.672173C14.4207 0.672564 14.202 0.716572 13.9981 0.801672C13.8981 0.843394 13.8027 0.894592 13.713 0.954422L16.041 3.28207C16.1007 3.19252 16.1519 3.09721 16.1935 2.99739C16.2787 2.7935 16.3227 2.57482 16.3231 2.35387C16.3235 2.13293 16.2803 1.91408 16.196 1.70987C16.1116 1.50566 15.9878 1.32011 15.8316 1.16387C15.6754 1.00763 15.4898 0.88377 15.2856 0.799392ZM16.523 3.76399C16.6404 3.6079 16.7382 3.43743 16.8138 3.25637C16.933 2.97084 16.9947 2.66457 16.9953 2.35515C16.9959 2.04573 16.9354 1.73924 16.8172 1.45325C16.6991 1.16727 16.5257 0.907418 16.3069 0.688609C16.0881 0.469799 15.8283 0.296336 15.5423 0.178169C15.2564 0.060002 14.9499 -0.000544195 14.6405 3.68528e-06C14.331 0.000551529 14.0248 0.0621826 13.7392 0.181362C13.5579 0.257018 13.3873 0.35492 13.2311 0.47251L13.2146 0.45601L2.83702 10.8339L0.995483 16L6.16155 14.1585L16.5395 3.78051L16.523 3.76399ZM15.5889 3.78054L13.2146 1.40658L3.60347 11.0181L5.97741 13.392L15.5889 3.78054ZM5.36398 13.7292L3.26631 11.6315L2.10436 14.8911L5.36398 13.7292Z" fill="#888888"/>
</svg>
