<svg width="16" height="16" viewBox="0 0 16 16" fill="none" xmlns="http://www.w3.org/2000/svg">
<path d="M15.8786 6.1854L9.81364 0.120405C9.64537 -0.0421236 9.3779 -0.0398265 9.2125 0.125573C9.04711 0.290973 9.04481 0.55844 9.20734 0.726706L10.1791 1.69844C10.0443 1.75745 9.92078 1.83929 9.81367 1.94022L7.03578 4.72157C6.95466 4.80254 6.8444 4.84763 6.72968 4.84677H5.01438C4.67339 4.84777 4.34647 4.98302 4.1044 5.22321L3.74933 5.57914H3.74948C3.50827 5.82034 3.37273 6.14756 3.37273 6.48868C3.37273 6.82967 3.50827 7.15689 3.74948 7.39808L5.87209 9.5207L0.125772 15.267C-0.041924 15.4347 -0.041924 15.7065 0.125772 15.8742C0.293468 16.0419 0.565255 16.0419 0.732969 15.8742L6.47892 10.1283L8.60154 12.2509L8.60169 12.2507C8.84289 12.4919 9.16996 12.6275 9.51109 12.6275C9.85221 12.6275 10.1794 12.4919 10.4206 12.2507L10.7766 11.8957C11.0166 11.6533 11.1516 11.3261 11.1522 10.985V9.2697C11.1523 9.15627 11.1972 9.0473 11.2774 8.96704L14.0587 6.18569C14.1596 6.07858 14.2415 5.95511 14.3005 5.82029L15.2688 6.79203C15.437 6.95456 15.7045 6.95226 15.8699 6.78686C16.0353 6.62146 16.0376 6.35399 15.8751 6.18573L15.8786 6.1854ZM13.4523 5.57908L10.6711 8.36285C10.4299 8.60291 10.2945 8.9291 10.2947 9.26939V10.9847C10.2941 11.0982 10.2492 11.2072 10.1695 11.2882L9.81357 11.6433C9.64616 11.8107 9.37468 11.8107 9.20726 11.6433L4.35556 6.79156C4.18815 6.62415 4.18815 6.35267 4.35556 6.18525L4.71062 5.82933C4.7916 5.74964 4.90057 5.7047 5.01414 5.70413H6.72943C7.07057 5.70499 7.39794 5.56945 7.63854 5.32768L10.4199 2.54633H10.4197C10.5001 2.46565 10.6094 2.42042 10.7234 2.42042C10.8373 2.42042 10.9465 2.46565 11.0269 2.54633L13.4523 4.97174C13.533 5.05215 13.5782 5.16141 13.5782 5.27526C13.5782 5.38926 13.533 5.49852 13.4523 5.57892L13.4523 5.57908Z" fill="#888888"/>
</svg>
