<svg width="19" height="16" viewBox="0 0 19 16" fill="none" xmlns="http://www.w3.org/2000/svg">
<path d="M16.1159 7.24429C13.4327 4.48478 9.59135 4.02678 8.13213 3.95462V0.44661C8.12989 0.269359 8.02545 0.109584 7.8651 0.038325C7.70452 -0.0331669 7.51743 -0.00298067 7.38673 0.115034L0.142392 6.91736C0.0516595 7.00293 0 7.12276 0 7.24803C0 7.37354 0.051656 7.49314 0.142392 7.5787L7.3804 14.381H7.38063C7.51134 14.499 7.69819 14.5292 7.85878 14.4577C8.01936 14.3865 8.12379 14.2267 8.12581 14.0497V10.4345C14.8337 10.6951 18.1414 15.7382 18.1742 15.7908C18.2806 15.9597 18.4845 16.0377 18.675 15.9824C18.8654 15.927 18.9971 15.7516 18.9986 15.5514C19.0417 12.0448 18.07 9.24871 16.1158 7.24427L16.1159 7.24429ZM7.6877 9.52337C7.44065 9.52337 7.24055 9.72582 7.24055 9.97523V13.0134L1.09896 7.24431L7.2325 1.4797V4.39602C7.2325 4.64567 7.43283 4.84788 7.67988 4.84788C8.49084 4.84788 12.6794 5.01197 15.4756 7.88C17.0019 9.44666 17.871 11.5659 18.0649 14.1943L18.0646 14.1945C16.758 12.7212 15.1582 11.5432 13.3698 10.7383C11.5815 9.9333 9.64482 9.51934 7.68707 9.5234L7.6877 9.52337Z" fill="#888888"/>
</svg>
