<svg width="16" height="16" viewBox="0 0 16 16" fill="none" xmlns="http://www.w3.org/2000/svg">
<path d="M8.71109 0.000243298C6.84802 -0.000734876 5.0554 0.712482 3.70167 1.99319C2.34799 3.27389 1.53622 5.0248 1.43313 6.88585C1.33019 8.747 1.94376 10.5769 3.14788 11.9992L0.191719 14.9569C0.0721584 15.0683 0.00302392 15.2235 8.83493e-05 15.387C-0.00270509 15.5504 0.0608451 15.708 0.176355 15.8236C0.291865 15.9391 0.449413 16.0027 0.612686 15.9999C0.776101 15.997 0.931279 15.9278 1.04258 15.8083L3.99889 12.8506C5.19628 13.8668 6.68981 14.4689 8.25707 14.5672C9.82418 14.6654 11.3811 14.2546 12.6958 13.396C14.0108 12.5373 15.0132 11.2766 15.5541 9.80192C16.0949 8.32722 16.1452 6.71693 15.6972 5.21118C15.2495 3.7055 14.3274 2.38484 13.0686 1.44573C11.8097 0.506687 10.2813 -0.000286062 8.71103 1.21095e-07L8.71109 0.000243298ZM8.71109 13.3807C7.09731 13.3807 5.54947 12.7393 4.40821 11.5977C3.26695 10.4559 2.62585 8.90744 2.62585 7.29276C2.62585 5.67822 3.26695 4.12965 4.40821 2.98785C5.54933 1.8462 7.09717 1.20465 8.71109 1.20465C10.325 1.20465 11.8727 1.8462 13.014 2.98785C14.1551 4.12951 14.7962 5.67808 14.7962 7.29276C14.7947 8.90701 14.153 10.4545 13.0121 11.5959C11.8713 12.7373 10.3246 13.3792 8.71105 13.3808L8.71109 13.3807Z" fill="#222222"/>
</svg>
