<svg width="17" height="16" viewBox="0 0 17 16" fill="none" xmlns="http://www.w3.org/2000/svg">
<path d="M0.481867 0.000464222C0.329963 0.00615648 0.188882 0.0804907 0.098364 0.202705C0.00795705 0.324807 -0.0220641 0.481512 0.0169976 0.628381L1.68304 6.87295L9.03995 7.999L1.68419 9.12405L0.0171404 15.3703C-0.0164554 15.4952 -0.000271176 15.6284 0.0622311 15.7415C0.124845 15.8548 0.228756 15.9395 0.352416 15.9777C0.47597 16.0159 0.60957 16.0047 0.725089 15.9465L15.7258 8.44613C15.8368 8.39032 15.923 8.29534 15.9677 8.17937C16.0125 8.06352 16.0125 7.93517 15.9677 7.8193C15.923 7.70345 15.8368 7.60835 15.7258 7.55255L0.725089 0.0522123C0.649752 0.0147106 0.566042 -0.00303594 0.481999 0.00042422L0.481867 0.000464222Z" fill="#888888"/>
</svg>
