<svg width="16" height="16" viewBox="0 0 16 16" fill="none" xmlns="http://www.w3.org/2000/svg">
<path fill-rule="evenodd" clip-rule="evenodd" d="M9.89072 1.63035L9.7862 1.21179C9.60798 0.499778 8.96798 0 8.23359 0H7.76646C7.03204 0 6.39205 0.499747 6.21385 1.21179L6.10564 1.62928C6.06349 1.79952 5.93921 1.93761 5.77445 1.99844C5.77386 1.99844 5.77338 1.99892 5.77231 1.99892C5.62195 2.05487 5.47422 2.11677 5.33016 2.18618C5.17016 2.25975 4.98411 2.24963 4.83313 2.15891L4.463 1.93701C3.8336 1.5595 3.02775 1.65868 2.50823 2.17761C2.40001 2.28641 2.28644 2.39999 2.17762 2.50821C1.65871 3.02774 1.55954 3.83356 1.93703 4.46298L2.15631 4.83524C2.24643 4.9856 2.25655 5.17179 2.18239 5.33072C2.18191 5.3318 2.18191 5.33227 2.18131 5.33287C2.11465 5.47846 2.05334 5.6262 2.00048 5.77809C1.93917 5.94297 1.80048 6.06666 1.63035 6.10928L1.21179 6.2138C0.499778 6.39202 0 7.03202 0 7.76641V8.23354C0 8.96796 0.499747 9.60795 1.21179 9.78615L1.62928 9.89436C1.8 9.9365 1.93761 10.0608 1.99844 10.2255C1.99844 10.2261 1.99892 10.2266 1.99892 10.2277C2.05487 10.378 2.11677 10.5258 2.18618 10.6698C2.25975 10.8298 2.24963 11.0159 2.15891 11.1669L1.93701 11.537C1.5595 12.1664 1.65868 12.9722 2.17761 13.4918C2.28641 13.6 2.39999 13.7136 2.50821 13.8224C3.02774 14.3413 3.83356 14.4405 4.46298 14.063L4.83524 13.8437C4.9856 13.7536 5.17179 13.7434 5.33073 13.8176C5.3318 13.8181 5.33227 13.8181 5.33287 13.8187C5.47846 13.8854 5.6262 13.9467 5.77809 13.9995C5.94297 14.0608 6.06666 14.1995 6.10928 14.3696L6.2138 14.7882C6.39202 15.5002 7.03202 16 7.76641 16H8.23354C8.96796 16 9.60795 15.5003 9.78615 14.7882L9.89436 14.3707C9.93651 14.2 10.0608 14.0624 10.2255 14.0016C10.2261 14.0016 10.2266 14.0011 10.2277 14.0011C10.378 13.9451 10.5258 13.8832 10.6698 13.8138C10.8298 13.7403 11.0159 13.7504 11.1669 13.8411L11.537 14.063C12.1664 14.4405 12.9722 14.3413 13.4918 13.8224C13.6 13.7136 13.7136 13.6 13.8224 13.4918C14.3413 12.9723 14.4405 12.1664 14.063 11.537L13.8437 11.1648C13.7536 11.0144 13.7434 10.8282 13.8176 10.6693C13.8181 10.6682 13.8181 10.6677 13.8187 10.6671C13.8854 10.5215 13.9467 10.3738 13.9995 10.2219C14.0608 10.057 14.1995 9.93334 14.3696 9.89072L14.7882 9.7862C15.5002 9.60798 16 8.96798 16 8.23359V7.76646C16 7.03204 15.5003 6.39205 14.7882 6.21385L14.3707 6.10564C14.2005 6.06349 14.0624 5.93921 14.0016 5.77445C14.0016 5.77386 14.0011 5.77338 14.0011 5.77231C13.9451 5.62195 13.8832 5.47422 13.8138 5.33016C13.7403 5.17016 13.7504 4.98411 13.8411 4.83313L14.063 4.463C14.4405 3.8336 14.3413 3.02775 13.8224 2.50823C13.7136 2.40001 13.6 2.28644 13.4918 2.17762C12.9723 1.65871 12.1664 1.55954 11.537 1.93703L11.1648 2.15631C11.0144 2.24643 10.8282 2.25655 10.6693 2.18239C10.6682 2.18191 10.6677 2.18191 10.6671 2.18131C10.5221 2.11465 10.3738 2.05334 10.2219 2.00048C10.057 1.93917 9.93334 1.80048 9.89072 1.63035ZM8.75144 1.47035L8.85596 1.88903C8.98453 2.40319 9.35952 2.82023 9.85655 3.0026C9.85977 3.00367 9.86298 3.00474 9.86619 3.00581C9.98715 3.04795 10.1056 3.0976 10.2219 3.15093C10.6987 3.37224 11.2565 3.34343 11.7099 3.07307C11.8288 3.00581 11.9589 2.92795 12.0858 2.85176C12.2955 2.72581 12.5643 2.75891 12.737 2.93224L13.0677 3.26297C13.2411 3.4357 13.2742 3.7045 13.1482 3.91415L12.9258 4.28474C12.6533 4.73975 12.6235 5.30081 12.8475 5.78188C12.8486 5.7845 12.8501 5.78712 12.8512 5.79033C12.9071 5.90509 12.9563 6.02342 13.0011 6.144C13.1819 6.63674 13.5963 7.01007 14.1071 7.13972C14.2389 7.17591 14.3856 7.21281 14.5296 7.24853C14.7669 7.30817 14.9333 7.5215 14.9333 7.76638V8.23352C14.9333 8.4784 14.7669 8.69172 14.5296 8.75137L14.111 8.85589C13.5968 8.98446 13.1798 9.35945 12.9974 9.85648C12.9963 9.85969 12.9952 9.86291 12.9942 9.86612C12.952 9.98708 12.9024 10.1055 12.8491 10.2218C12.6277 10.6986 12.6566 11.2565 12.9269 11.7098C12.9942 11.8287 13.072 11.9589 13.1482 12.0858C13.2742 12.2954 13.2411 12.5642 13.0677 12.7369L12.737 13.0677C12.5643 13.241 12.2955 13.2741 12.0858 13.1481L11.7152 12.9258C11.2602 12.6533 10.6992 12.6234 10.2181 12.8474C10.2155 12.8485 10.2129 12.85 10.2097 12.8511C10.0949 12.9071 9.97656 12.9562 9.85598 13.001C9.36324 13.1818 8.98991 13.5962 8.86026 14.1071L8.75145 14.5296C8.69181 14.7668 8.47848 14.9332 8.2336 14.9332H7.76647C7.52158 14.9332 7.30826 14.7668 7.24862 14.5296L7.14409 14.1109C7.01552 13.5967 6.64054 13.1797 6.1435 12.9973C6.14029 12.9962 6.13707 12.9952 6.13386 12.9941C6.0129 12.952 5.89445 12.9023 5.77814 12.849C5.30134 12.6277 4.74409 12.6565 4.29018 12.9268L3.91422 13.1481C3.70458 13.2741 3.43578 13.241 3.26304 13.0677L2.93231 12.7369C2.75898 12.5642 2.72589 12.2954 2.85184 12.0858L3.07422 11.7152C3.34672 11.2602 3.3766 10.6991 3.15255 10.218C3.15148 10.2154 3.14993 10.2122 3.14886 10.2096C3.09291 10.0948 3.04374 9.97649 2.99898 9.85591C2.81815 9.36317 2.40375 8.98984 1.89291 8.86019L1.47042 8.75138C1.23316 8.69174 1.06673 8.47841 1.06673 8.23353V7.7664C1.06673 7.52151 1.23316 7.30819 1.47042 7.24855L1.8891 7.14402C2.40326 7.01545 2.8203 6.64047 3.00267 6.14343C3.00374 6.14022 3.00481 6.137 3.00588 6.13379C3.04802 6.01283 3.09767 5.89438 3.151 5.77807C3.37231 5.30127 3.3435 4.74402 3.07314 4.29011L2.85183 3.91415C2.72588 3.70451 2.75898 3.43571 2.93231 3.26297L3.26304 2.93224C3.43577 2.75891 3.70457 2.72582 3.91422 2.85177L4.28481 3.07415C4.73982 3.34665 5.30088 3.37653 5.78195 3.15248C5.78457 3.15141 5.78778 3.14986 5.7904 3.14879C5.90516 3.09284 6.02349 3.04367 6.14407 2.99891C6.63681 2.81808 7.01014 2.40368 7.13979 1.89284C7.17598 1.76106 7.21288 1.61439 7.2486 1.47035C7.30824 1.23309 7.52157 1.06666 7.76645 1.06666H8.23359C8.47847 1.06666 8.69179 1.23309 8.75144 1.47035Z" fill="#222222"/>
<path fill-rule="evenodd" clip-rule="evenodd" d="M8.0137 4.26665C5.9455 4.26665 4.26666 5.94558 4.26666 8.01369C4.26666 10.082 5.94559 11.761 8.0137 11.761C10.082 11.761 11.761 10.0821 11.761 8.01369C11.761 5.94549 10.0821 4.26665 8.0137 4.26665ZM8.0137 5.33332C9.49322 5.33332 10.6943 6.53438 10.6943 8.01378C10.6943 9.49331 9.49322 10.6944 8.0137 10.6944C6.5343 10.6944 5.33324 9.49331 5.33324 8.01378C5.33324 6.53438 6.5343 5.33332 8.0137 5.33332Z" fill="#222222"/>
</svg>
