<svg width="16" height="16" viewBox="0 0 16 16" fill="none" xmlns="http://www.w3.org/2000/svg">
<path d="M8 0C3.5887 0 0 3.58864 0 8C0 12.4114 3.58864 16 8 16C12.4114 16 16 12.4114 16 8C16 3.58864 12.4114 0 8 0ZM8 15.1757C4.04333 15.1757 0.824284 11.9567 0.824284 8C0.824284 4.04333 4.04333 0.824284 8 0.824284C11.9567 0.824284 15.1757 4.04333 15.1757 8C15.1757 11.9565 11.9569 15.1757 8 15.1757Z" fill="#888888"/>
<path d="M12.2366 9.24349C12.0425 9.12431 11.7888 9.18543 11.6697 9.37944C10.6718 11.0082 9.36852 11.905 7.99984 11.905C6.63137 11.905 5.32806 11.0082 4.33023 9.37944C4.21125 9.18544 3.95796 9.12431 3.76354 9.24349C3.56954 9.36247 3.50861 9.61618 3.62739 9.81018C4.78102 11.6926 6.33371 12.7295 7.99986 12.7295C9.66601 12.7295 11.2189 11.6928 12.3725 9.81018C12.4917 9.61617 12.431 9.36246 12.2366 9.24349Z" fill="#888888"/>
<path d="M6.42051 5.86105C6.42051 6.46804 5.92844 6.95989 5.32147 6.95989C4.71469 6.95989 4.22263 6.46802 4.22263 5.86105C4.22263 5.25408 4.71471 4.76221 5.32147 4.76221C5.92845 4.76221 6.42051 5.25408 6.42051 5.86105Z" fill="#888888"/>
<path d="M11.7776 5.86105C11.7776 6.46804 11.2855 6.95989 10.6785 6.95989C10.0717 6.95989 9.57969 6.46802 9.57969 5.86105C9.57969 5.25408 10.0718 4.76221 10.6785 4.76221C11.2855 4.76221 11.7776 5.25408 11.7776 5.86105Z" fill="#888888"/>
</svg>
