<svg width="13" height="14" viewBox="0 0 13 14" fill="none" xmlns="http://www.w3.org/2000/svg">
<path d="M9.0103 13.5861C8.31208 13.5861 7.65875 13.3211 7.18585 12.8352L2.0953 7.86538C1.26177 7.026 0.788879 5.92161 0.788879 4.75095C0.788879 2.3212 2.81601 0.333374 5.29379 0.333374C6.48759 0.333374 7.61382 0.797299 8.46979 1.61447L12.772 5.85535L11.8259 6.78316L7.50124 2.56437C6.91564 1.99 6.12724 1.65873 5.29387 1.65873C3.55944 1.65873 2.14051 3.0503 2.14051 4.75095C2.14051 5.56816 2.47832 6.34128 3.06406 6.93769L8.13208 11.9075C8.35739 12.1284 8.67271 12.2609 9.01054 12.2609C9.68632 12.2609 10.2494 11.7087 10.2494 11.046C10.2494 10.7148 10.1143 10.4276 9.889 10.1846L5.0237 5.41362L5.96973 4.48593L10.835 9.25692C11.3306 9.74285 11.6008 10.3834 11.6008 11.046C11.601 12.4376 10.4297 13.586 9.01059 13.586L9.0103 13.5861Z" fill="#888888"/>
</svg>
