<svg width="11" height="12" viewBox="0 0 11 12" fill="none" xmlns="http://www.w3.org/2000/svg">
<path d="M5.06241 7.31245C5.6592 7.31245 6.23141 7.07546 6.65336 6.65339C7.0754 6.23145 7.31242 5.65927 7.31242 5.06245V2.24994C7.31242 1.4461 6.88355 0.703361 6.18748 0.301441C5.49129 -0.10048 4.63357 -0.10048 3.93738 0.301441C3.24131 0.703361 2.81244 1.44613 2.81244 2.24994V5.06245C2.81244 5.65924 3.04943 6.23145 3.4715 6.65339C3.89345 7.07543 4.46559 7.31245 5.06241 7.31245ZM3.93734 2.24994C3.93734 1.84802 4.15184 1.47657 4.49988 1.27567C4.84803 1.07465 5.27677 1.07465 5.62495 1.27567C5.973 1.47657 6.18748 1.84802 6.18748 2.24994V5.06245C6.18748 5.46437 5.97299 5.83582 5.62495 6.03671C5.2768 6.23774 4.84806 6.23774 4.49988 6.03671C4.15183 5.83582 3.93734 5.46437 3.93734 5.06245V2.24994Z" fill="#888888"/>
<path d="M4.49991 9.90565V12H5.62498V9.90565C6.86239 9.76728 8.0055 9.17768 8.83563 8.24972C9.66589 7.32163 10.1248 6.12018 10.125 4.87505V4.50008H9.00003V4.87505C9.00003 6.28184 8.24956 7.58175 7.03124 8.28521C5.81292 8.98847 4.31198 8.98847 3.09373 8.28521C1.87541 7.58182 1.12494 6.2819 1.12494 4.87505V4.50008H0V4.87505C0.000130815 6.12028 0.459075 7.32173 1.28933 8.24972C2.11946 9.17768 3.26251 9.76727 4.49991 9.90565Z" fill="#888888"/>
</svg>
